<svg width="126" height="37" viewBox="0 0 126 37" fill="none" xmlns="http://www.w3.org/2000/svg">
<g clip-path="url(#clip0_131_2172)">
<path d="M31.4074 23.0268C31.1095 22.4805 30.737 21.9815 30.303 21.5428L27.956 19.1959L25.6992 21.4526L28.0183 23.7717C28.6367 24.3894 29.0189 25.2433 29.0189 26.1868C29.0189 27.1303 28.6639 27.9219 28.0845 28.5344L28.0825 28.5364C28.0611 28.5584 28.0397 28.5805 28.0183 28.6025C26.5213 30.1365 24.6857 31.3395 22.6327 32.0909C21.0825 32.658 19.4077 32.9675 17.6616 32.9675C16.1815 32.9675 14.754 32.7456 13.4096 32.3323C12.3078 31.9949 11.2631 31.5284 10.2911 30.9521C6.04165 28.4313 3.19247 23.7976 3.19247 18.4984C3.19247 13.199 6.04165 8.56479 10.2911 6.04391C11.2664 5.46578 12.3156 4.99858 13.4213 4.66049C14.7625 4.2491 16.1867 4.02847 17.6623 4.02847C19.4039 4.02847 21.0735 4.33603 22.6197 4.89994C24.6772 5.65068 26.5168 6.85431 28.0164 8.39152C28.0364 8.4116 28.0559 8.43176 28.0754 8.45184C28.66 9.06503 29.0189 9.89492 29.0189 10.8092C29.0189 11.7235 28.6367 12.6059 28.0183 13.2243L27.4934 13.7499L25.0017 16.2409L19.5693 10.8086C19.3909 10.632 19.2028 10.4659 19.0055 10.3102C17.8822 9.42773 16.4651 8.90088 14.9254 8.90088C14.379 8.90088 13.8483 8.96706 13.3401 9.09289C12.9787 9.18116 12.629 9.29989 12.2941 9.44588C12.2682 9.45693 12.2423 9.46864 12.217 9.48027C9.91801 10.514 8.31722 12.8246 8.31722 15.509C8.31722 15.6731 8.32307 15.836 8.33537 15.9976C8.33537 16.0041 8.33604 16.0105 8.33671 16.0177C8.3393 16.0573 8.34324 16.0969 8.34709 16.1365C8.43017 16.8437 8.86298 17.4446 9.46772 17.7606C9.75971 17.913 10.0919 17.9994 10.4443 17.9994H10.4475C11.0698 17.9987 11.6297 17.7281 12.0152 17.2986C12.3513 16.9254 12.5557 16.431 12.5557 15.8885C12.5557 15.6997 12.531 15.5174 12.485 15.3435C12.3662 14.899 12.106 14.5116 11.7556 14.234C12.2611 12.979 13.4894 12.0933 14.9254 12.0933C15.8688 12.0933 16.7227 12.4755 17.3411 13.0939L22.7449 18.4977L21.3414 19.9012L17.3119 23.9307C16.6961 24.5322 15.8539 24.9027 14.9254 24.9027C14.4322 24.9027 13.963 24.7982 13.5394 24.61C13.5368 24.6088 13.5335 24.6075 13.5303 24.6062C12.7257 24.2454 12.0859 23.5829 11.7556 22.7627C12.106 22.4843 12.3662 22.0976 12.485 21.6525C12.531 21.4792 12.5557 21.2963 12.5557 21.1081C12.5557 20.5656 12.3513 20.0712 12.0152 19.6975C11.6297 19.2685 11.071 18.9979 10.4488 18.9967H10.4443C10.0919 18.9967 9.75971 19.0829 9.46772 19.2355C8.86097 19.5527 8.42757 20.1562 8.34642 20.866C8.34583 20.8752 8.34449 20.8836 8.34382 20.892C8.34123 20.9206 8.33864 20.9485 8.33671 20.977C8.33671 20.9848 8.33671 20.992 8.33537 20.9991C8.32307 21.16 8.31722 21.3229 8.31722 21.4864C8.31722 24.1708 9.91801 26.4821 12.217 27.5157L12.2941 27.5501C12.629 27.6961 12.9787 27.8148 13.3401 27.9031C13.8483 28.029 14.379 28.0952 14.9254 28.0952C16.469 28.0952 17.8888 27.5663 19.0132 26.6793C19.1203 26.595 19.2248 26.5067 19.3267 26.4152L19.3293 26.4126L24.238 21.5039L24.9946 20.7473L27.2513 18.4906L27.9196 17.8228L28.5056 17.2369L30.2679 15.474C30.715 15.0269 31.0985 14.5156 31.4034 13.9556C31.9135 13.0179 32.2035 11.9434 32.2035 10.8014C32.2035 10.259 32.1379 9.73211 32.0147 9.22793C31.7363 8.08781 31.1627 7.06389 30.3789 6.24245C30.3548 6.2171 30.3309 6.19251 30.3056 6.16783C30.3023 6.16456 30.2997 6.16197 30.2971 6.1587C30.277 6.13929 30.2575 6.11913 30.238 6.09972C30.2335 6.09453 30.229 6.0906 30.2245 6.08667C27.0229 2.84559 22.5775 0.83667 17.6623 0.83667C15.277 0.83667 13.0027 1.30905 10.927 2.16622C9.88948 2.59451 8.90188 3.11876 7.9746 3.72744C3.17105 6.88485 0 12.3211 0 18.4984C0 24.6756 3.17105 30.1119 7.9746 33.2686C8.89862 33.8753 9.88296 34.3983 10.9167 34.8252C12.9949 35.6857 15.2732 36.16 17.6623 36.16C22.6035 36.16 27.0709 34.1303 30.2757 30.8594L30.2907 30.8445C30.301 30.834 30.3114 30.823 30.3218 30.8127C30.3419 30.7925 30.362 30.7718 30.3815 30.751C30.3892 30.7438 30.3964 30.736 30.4035 30.7276C31.1757 29.912 31.7422 28.8991 32.0192 27.772C32.1451 27.2639 32.2113 26.7332 32.2113 26.1868C32.2113 25.0422 31.9193 23.9657 31.4074 23.0268Z" fill="#215FFF"/>
<path d="M51.8521 16.0755C51.5762 15.6804 51.2214 15.3246 50.8271 15.0085C50.4329 14.6924 50.0387 14.4552 49.605 14.2576C49.1714 14.06 48.7377 13.902 48.2647 13.7834C47.7916 13.6648 47.3185 13.6253 46.8455 13.6253C46.2935 13.6253 45.7021 13.7043 45.1109 13.8624C44.5983 14.0205 44.0859 14.2181 43.6127 14.4947C42.706 15.048 41.9176 15.8384 41.405 16.7474C41.1291 17.2216 40.932 17.7354 40.7743 18.2492C40.6166 18.8025 40.5771 19.3558 40.5771 19.9091C40.5771 20.4623 40.656 21.0155 40.8138 21.5688C40.9714 22.0826 41.1685 22.5964 41.4839 23.0707C42.0359 23.9796 42.8243 24.77 43.7705 25.3233C44.2435 25.6 44.756 25.8371 45.2685 25.9556C45.781 26.1137 46.3329 26.1928 46.8849 26.1928H46.9243C47.2791 26.1928 47.6733 26.1533 48.0282 26.0742C48.3829 25.9951 48.7377 25.9161 49.0532 25.7975C49.3685 25.679 49.6839 25.5209 49.9993 25.3233C50.2753 25.1652 50.5906 24.9676 50.8271 24.77C50.9455 24.6514 51.0637 24.5329 51.182 24.4143C51.3003 24.2562 51.3397 24.0982 51.3791 23.9005C51.3791 23.782 51.3397 23.703 51.3003 23.5844C51.2608 23.5054 51.2214 23.4263 51.182 23.3868L51.0243 23.1892C50.9849 23.1497 50.9455 23.0707 50.906 22.9916C50.8271 22.873 50.7483 22.7545 50.63 22.6359C50.5512 22.5174 50.4724 22.4383 50.3541 22.3592C50.2358 22.2803 50.1176 22.2407 49.9993 22.2407H49.9599H49.9205C49.7627 22.2407 49.605 22.2803 49.4868 22.3988C49.4079 22.4383 49.3291 22.5174 49.2897 22.5569C49.132 22.6754 48.9743 22.8335 48.7771 22.9521C48.6195 23.0707 48.4224 23.1892 48.2647 23.2683C48.0676 23.3473 47.8705 23.4263 47.6339 23.4658C47.3974 23.5054 47.1608 23.5449 46.8849 23.5449H46.8455C46.4512 23.5449 46.057 23.4658 45.7021 23.3078C45.3079 23.1497 44.9926 22.9521 44.6771 22.6754C44.3618 22.3988 44.0859 22.0826 43.8493 21.727C43.731 21.5293 43.6127 21.3317 43.5339 21.1341H52.207C52.7195 21.1341 53.0743 20.7784 53.0743 20.2647C53.1137 19.4743 52.9955 18.6444 52.7983 17.8934C52.6406 17.2612 52.2858 16.6288 51.8521 16.0755ZM50.3147 18.5653H43.5339C43.6521 18.2887 43.7705 18.0516 43.9676 17.7749C44.2435 17.3797 44.5983 17.0241 44.9926 16.7474C45.2685 16.5498 45.6233 16.4312 45.9388 16.3522C46.2541 16.2732 46.6089 16.2337 46.9638 16.2337C47.3974 16.2337 47.7916 16.3126 48.1858 16.4312C48.58 16.5498 48.9349 16.7474 49.2503 17.0241C49.5656 17.2612 49.8416 17.5774 50.0387 17.933C50.157 18.1306 50.2358 18.3282 50.3147 18.5653Z" fill="#215FFF"/>
<path d="M63.4799 24.6909L58.9069 19.2371L62.9281 15.0479C63.0463 14.8898 63.1252 14.6527 63.1252 14.4947C63.1252 14.3761 63.1252 14.297 63.0857 14.218C63.0463 14.139 62.9675 14.0599 62.8886 13.9414C62.7309 13.8228 62.5732 13.7833 62.4155 13.7833H61.1146C60.9175 13.7833 60.7598 13.8228 60.6021 13.9019C60.4838 13.9809 60.4049 14.0599 60.2867 14.139L56.5021 18.1701V11.2935C56.5021 11.1749 56.5021 11.0564 56.4232 10.9378C56.3838 10.8193 56.3049 10.7007 56.2261 10.6612C56.0684 10.5031 55.8713 10.424 55.6348 10.424H54.7281C54.6098 10.424 54.4915 10.424 54.3732 10.4636C54.2549 10.5031 54.1367 10.5822 54.0578 10.6612C53.9002 10.8193 53.8213 11.0169 53.8213 11.254V25.0466C53.8213 25.1652 53.8213 25.2837 53.8607 25.3627C53.9002 25.4813 53.979 25.5999 54.0578 25.6789C54.1367 25.7579 54.2549 25.837 54.3732 25.8765C54.4521 25.916 54.5309 25.916 54.6492 25.916C54.6886 25.916 54.6886 25.916 54.7281 25.916H55.5559C56.0684 25.916 56.4232 25.5603 56.4232 25.0466V21.7664L57.0934 21.0945L60.6809 25.4418C60.7598 25.5603 60.8386 25.7185 60.9963 25.7974C61.154 25.8765 61.3117 25.9556 61.4693 25.9556H62.9675C63.1252 25.9556 63.2434 25.9556 63.3617 25.8765L63.4011 25.837C63.4799 25.7974 63.7165 25.6394 63.7165 25.2837C63.7165 25.2047 63.7165 25.1256 63.6771 25.0466C63.6771 24.928 63.5982 24.8094 63.4799 24.6909Z" fill="#215FFF"/>
<path d="M74.4041 13.782H73.5368C73.4185 13.782 73.3003 13.782 73.2214 13.8215C73.1032 13.861 72.9848 13.94 72.906 14.0191C72.8272 14.0981 72.7483 14.2167 72.7089 14.3353C72.6695 14.4538 72.6695 14.5724 72.6695 14.6514V14.6909C72.3147 14.4538 71.9598 14.2167 71.5656 14.0586C70.8166 13.7424 70.0282 13.5844 69.2397 13.5844C69.2003 13.5844 69.2003 13.5844 69.1609 13.5844C68.6089 13.5844 68.057 13.6634 67.5051 13.8215C66.9926 13.9795 66.4801 14.1771 66.007 14.4538C65.5339 14.7304 65.1003 15.0466 64.7454 15.4418C64.3512 15.837 64.0359 16.2322 63.7598 16.7065C63.4839 17.1807 63.2474 17.6945 63.1291 18.2082C62.8137 19.3148 62.8137 20.4609 63.1291 21.5279C63.2868 22.0417 63.4839 22.5554 63.7598 23.0297C64.3118 23.9387 65.1003 24.7291 66.007 25.2824C66.4801 25.559 66.9926 25.7961 67.5051 25.9147C68.057 26.0728 68.6089 26.1518 69.1609 26.1518C69.2003 26.1518 69.2003 26.1518 69.2397 26.1518C70.0282 26.1518 70.8166 25.9937 71.5656 25.6775C71.9598 25.5195 72.3147 25.2824 72.6695 25.0453V25.1243C72.6695 25.2428 72.6695 25.3614 72.7483 25.48C72.7877 25.5986 72.8666 25.6775 72.9454 25.7566C73.0243 25.8357 73.1426 25.9147 73.2609 25.9542C73.3791 25.9937 73.4974 26.0332 73.5762 25.9937H74.483C74.7195 25.9937 74.9166 25.9147 75.0743 25.7566C75.1531 25.6775 75.232 25.559 75.2714 25.4404C75.3109 25.3219 75.3503 25.2033 75.3109 25.1243V14.6514C75.3109 14.3353 75.1926 14.1377 75.0743 14.0191C74.956 13.9005 74.7589 13.782 74.4041 13.782ZM72.7089 19.8286C72.7089 20.3028 72.6301 20.777 72.433 21.2513C72.2359 21.6861 71.9993 22.0812 71.6445 22.4369C71.3291 22.7926 70.9348 23.0692 70.5012 23.2669C70.0676 23.4644 69.5945 23.583 69.1215 23.583C68.6483 23.583 68.1753 23.4644 67.781 23.2669C67.3474 23.0692 66.9926 22.7926 66.6377 22.4369C66.3224 22.0812 66.0465 21.6861 65.8887 21.2513C65.5339 20.3423 65.5339 19.3544 65.8887 18.4453C66.0859 18.0107 66.3224 17.6154 66.6377 17.2598C66.9532 16.9041 67.3474 16.6669 67.781 16.4694C68.2147 16.2717 68.6877 16.1532 69.1215 16.1532C69.5945 16.1532 70.0676 16.2717 70.5012 16.4694C70.9348 16.6669 71.3291 16.9436 71.6445 17.2598C71.9598 17.6154 72.2359 18.0107 72.433 18.4453C72.6301 18.88 72.7089 19.3544 72.7089 19.8286Z" fill="#215FFF"/>
<path d="M91.1138 23.5454C91.0745 23.5059 91.0352 23.4268 90.9959 23.3873L90.6018 22.8735C90.5616 22.7945 90.483 22.7155 90.4437 22.6364C90.365 22.4783 90.2069 22.3993 90.0103 22.3203C89.8522 22.2808 89.6949 22.2808 89.5367 22.3203C89.4188 22.3597 89.3401 22.3993 89.2213 22.4783L89.1033 22.5969C88.946 22.7155 88.7879 22.8735 88.5905 22.9921C88.4332 23.1106 88.2357 23.2292 88.0784 23.3083C87.881 23.3873 87.6843 23.4663 87.4476 23.5059C87.2108 23.5454 86.9749 23.5849 86.6988 23.5849H86.6594C86.2252 23.5849 85.7525 23.4663 85.3584 23.3083C84.9242 23.1106 84.5301 22.834 84.2147 22.5179C83.8599 22.1622 83.6232 21.767 83.4266 21.3322C83.2291 20.8975 83.1505 20.4233 83.1505 19.9095C83.1505 19.4353 83.2684 18.9215 83.4659 18.4868C83.6633 18.0521 83.9386 17.6173 84.254 17.3012C84.5694 16.9455 84.9643 16.6688 85.3977 16.4713C85.7918 16.2737 86.2645 16.1551 86.6988 16.1551C86.9347 16.1551 87.1322 16.1946 87.3689 16.2341C87.8023 16.3132 88.2357 16.5108 88.5905 16.7479C88.7486 16.8664 88.9059 16.985 89.064 17.1431C89.2615 17.3407 89.4974 17.4592 89.7342 17.4592C89.8915 17.4592 90.1283 17.3802 90.3257 17.1036L90.9959 16.2341C91.1138 16.076 91.1138 15.8784 91.1138 15.7204C91.1138 15.6018 91.0352 15.4437 90.9566 15.3251C90.8771 15.2462 90.7984 15.1671 90.7198 15.088L90.5616 14.9695C90.3257 14.7718 90.0496 14.6138 89.7735 14.4558C89.4581 14.2976 89.182 14.1396 88.8666 14.021C88.5511 13.9025 88.1964 13.8234 87.8416 13.7443C87.4869 13.6653 87.1322 13.6258 86.7774 13.6653C86.2252 13.6653 85.6738 13.7443 85.1216 13.9025C84.6088 14.0605 84.0967 14.2581 83.6232 14.5347C82.6777 15.088 81.9281 15.8784 81.3374 16.7874C81.0613 17.2617 80.8245 17.7754 80.6672 18.2892C80.3518 19.3958 80.3518 20.5418 80.6672 21.6089C80.8245 22.1226 81.022 22.6364 81.3374 23.1106C81.8888 24.0196 82.6777 24.81 83.6232 25.3633C84.0967 25.64 84.6088 25.8771 85.1216 25.9956C85.6738 26.1537 86.1859 26.2328 86.7381 26.2328H86.7774C87.1322 26.2328 87.5262 26.1933 87.881 26.1142C88.2357 26.0351 88.5905 25.9562 88.9059 25.8376C89.2213 25.719 89.5367 25.5609 89.8522 25.3633C90.1283 25.2052 90.4044 25.0076 90.6805 24.81C90.7984 24.731 90.9172 24.6125 90.9959 24.4939C91.0745 24.3753 91.1532 24.2567 91.1925 24.1382C91.2318 23.9801 91.2318 23.822 91.1925 23.7034L91.1138 23.5454Z" fill="#215FFF"/>
<path d="M102.943 13.782H102.075C101.957 13.782 101.838 13.782 101.76 13.8215C101.642 13.861 101.524 13.94 101.444 14.0191C101.366 14.0981 101.287 14.2167 101.248 14.3353C101.208 14.4538 101.208 14.5724 101.208 14.6514V14.6909C100.853 14.4538 100.498 14.2167 100.104 14.0586C99.3552 13.7424 98.5671 13.5844 97.7388 13.5844C97.1866 13.5844 96.6352 13.6634 96.083 13.8215C95.571 13.9795 95.0581 14.1771 94.5854 14.4538C94.1119 14.7304 93.6785 15.0466 93.3237 15.4418C92.9296 15.837 92.6142 16.2322 92.3381 16.7065C92.062 17.1807 91.8646 17.6945 91.7073 18.2082C91.3918 19.3148 91.3918 20.4609 91.7073 21.5279C92.1407 23.1087 93.2049 24.4524 94.5854 25.2824C95.0581 25.559 95.571 25.7961 96.083 25.9147C96.6352 26.0728 97.1866 26.1518 97.7388 26.1518C97.7781 26.1518 97.7781 26.1518 97.8174 26.1518C98.6064 26.1518 99.3946 25.9937 100.143 25.6775C100.538 25.5195 100.893 25.2824 101.248 25.0453V25.1243C101.248 25.2428 101.248 25.3614 101.326 25.48C101.366 25.5986 101.444 25.6775 101.524 25.7566C101.603 25.8357 101.72 25.9147 101.838 25.9542C101.957 25.9937 102.075 26.0332 102.154 25.9937H103.061C103.298 25.9937 103.494 25.9147 103.652 25.7566C103.731 25.6775 103.81 25.559 103.85 25.4404C103.889 25.3219 103.928 25.2033 103.928 25.1243V14.6514C103.928 14.3353 103.81 14.1377 103.692 14.0191C103.494 13.9005 103.298 13.782 102.943 13.782ZM101.287 19.8286C101.287 20.3028 101.208 20.777 101.011 21.2513C100.814 21.6861 100.578 22.1207 100.223 22.4369C99.9074 22.7926 99.5125 23.0692 99.0791 23.2669C98.6457 23.4644 98.1722 23.583 97.6995 23.583C97.2268 23.583 96.7532 23.4644 96.3591 23.2669C95.9257 23.0692 95.571 22.7926 95.2154 22.4369C94.9 22.0812 94.6247 21.6861 94.4666 21.2513C94.1118 20.3423 94.1118 19.3544 94.4666 18.4453C94.664 18.0107 94.9 17.6154 95.2154 17.2598C95.5308 16.9041 95.9257 16.6669 96.3591 16.4694C96.7925 16.2717 97.2661 16.1532 97.6995 16.1532C98.1722 16.1532 98.6457 16.2717 99.0791 16.4694C99.5125 16.6669 99.9074 16.9436 100.223 17.2598C100.538 17.6154 100.814 18.0107 101.011 18.4453C101.168 18.88 101.287 19.3544 101.287 19.8286Z" fill="#215FFF"/>
<path d="M113.231 15.4432C113.231 15.3246 113.192 15.2061 113.153 15.0875C113.113 14.969 113.034 14.8899 112.955 14.8109C112.877 14.7318 112.798 14.6528 112.679 14.6133C112.443 14.4552 112.207 14.2971 111.93 14.1391C111.694 14.0205 111.458 13.902 111.182 13.8229C110.905 13.7438 110.629 13.7043 110.353 13.6648C110.038 13.6253 109.722 13.6253 109.447 13.6253C109.092 13.6253 108.776 13.6648 108.462 13.7834C108.185 13.902 107.949 14.0205 107.712 14.1786C107.673 14.2181 107.633 14.2576 107.594 14.2576C107.555 14.1786 107.515 14.0995 107.436 14.0205C107.357 13.9414 107.239 13.8624 107.12 13.8229C107.002 13.7834 106.884 13.7438 106.806 13.7834H105.899C105.78 13.7834 105.662 13.7834 105.583 13.8624C105.465 13.902 105.386 13.9809 105.307 14.0205C105.229 14.0995 105.15 14.2181 105.11 14.3367C105.071 14.4552 105.031 14.5738 105.031 14.6528V25.1257C105.031 25.6395 105.386 25.9951 105.899 25.9951H106.806C106.845 25.9951 106.845 25.9951 106.884 25.9951C106.963 25.9951 107.081 25.9951 107.161 25.9556C107.279 25.9161 107.397 25.8371 107.476 25.758C107.555 25.679 107.633 25.5604 107.673 25.4418C107.712 25.3233 107.712 25.2047 107.712 25.1257V18.2096C107.712 17.8934 107.751 17.6168 107.87 17.3402C107.949 17.103 108.106 16.9055 108.264 16.7079C108.421 16.5498 108.619 16.4312 108.816 16.3126C109.013 16.2337 109.25 16.1941 109.486 16.1941C109.802 16.1941 110.117 16.2337 110.432 16.3522C110.788 16.4708 111.103 16.6288 111.378 16.8264L111.497 16.9055C111.615 17.0241 111.773 17.0636 111.97 17.0636C112.088 17.0636 112.206 17.0241 112.285 16.945C112.403 16.8659 112.483 16.7869 112.561 16.7079L113.113 15.8384C113.192 15.7199 113.231 15.6013 113.231 15.4432Z" fill="#215FFF"/>
<path d="M125.216 17.9316C125.02 17.2598 124.743 16.5879 124.31 16.0346C123.995 15.6394 123.679 15.2837 123.285 14.9675C122.89 14.6514 122.496 14.4143 122.063 14.2167C121.629 14.0191 121.195 13.861 120.722 13.7424C120.249 13.6239 119.776 13.5844 119.303 13.5844H119.263C118.712 13.5844 118.12 13.6634 117.568 13.8215C117.056 13.9795 116.543 14.1771 116.071 14.4538C115.597 14.7304 115.164 15.0466 114.809 15.4418C114.06 16.2322 113.508 17.1807 113.232 18.2082C113.074 18.7615 113.035 19.3148 113.035 19.8681C113.035 20.4214 113.114 21.0141 113.271 21.5279C113.429 22.0417 113.626 22.5554 113.902 23.0297C114.178 23.504 114.533 23.9387 114.888 24.2944C115.282 24.6895 115.716 25.0057 116.149 25.2824C116.622 25.559 117.135 25.7961 117.648 25.9147C118.199 26.0728 118.712 26.1518 119.263 26.1518C119.263 26.1518 119.263 26.1518 119.303 26.1518C119.698 26.1518 120.052 26.1123 120.407 26.0333C120.762 25.9542 121.117 25.8752 121.432 25.7566C121.747 25.6381 122.063 25.48 122.378 25.2824C122.654 25.1243 122.93 24.9267 123.206 24.7291C123.324 24.6105 123.482 24.492 123.56 24.3734C123.679 24.2549 123.719 24.0967 123.719 23.8596C123.719 23.7411 123.679 23.662 123.64 23.5435C123.601 23.4644 123.56 23.3854 123.521 23.3458L123.403 23.1878C123.364 23.1483 123.324 23.0692 123.245 22.9902L122.97 22.6345C122.93 22.5554 122.851 22.4765 122.772 22.4369C122.694 22.3579 122.575 22.3183 122.457 22.2788C122.339 22.2393 122.22 22.2393 122.141 22.2788C122.023 22.3183 121.944 22.3579 121.865 22.3974C121.787 22.4369 121.708 22.5159 121.669 22.5554C121.511 22.674 121.353 22.8321 121.156 22.9507C120.999 23.0692 120.801 23.1878 120.644 23.2669C120.446 23.3458 120.249 23.4249 120.013 23.4644C119.776 23.504 119.5 23.5435 119.263 23.5435H119.224C118.83 23.5435 118.436 23.4644 118.081 23.3063C117.687 23.1483 117.372 22.9507 117.056 22.674C116.741 22.3974 116.465 22.0812 116.267 21.7255C116.149 21.5279 116.031 21.3303 115.952 21.1328H124.625C125.138 21.1328 125.492 20.777 125.492 20.2633C125.532 19.5124 125.414 18.722 125.216 17.9316ZM122.733 18.564H115.952C116.071 18.2873 116.189 18.0502 116.386 17.7735C116.662 17.3783 117.017 17.0226 117.411 16.746C117.687 16.5483 118.002 16.4298 118.357 16.3508C118.673 16.2717 119.027 16.2322 119.382 16.2322C119.815 16.2322 120.21 16.3112 120.604 16.4298C120.999 16.5483 121.353 16.746 121.669 17.0226C121.984 17.2598 122.259 17.5759 122.457 17.9316C122.536 18.1292 122.654 18.3268 122.733 18.564Z" fill="#215FFF"/>
<path d="M78.8169 23.0321C78.5408 22.9135 78.2254 22.874 77.91 22.9531C77.5949 23.0321 77.3189 23.1507 77.0823 23.3878C76.8458 23.6249 76.6881 23.9016 76.6487 24.2177C76.5699 24.6525 76.6487 25.0477 76.8852 25.4034C77.1217 25.759 77.4766 25.9961 77.8706 26.0752C77.9894 26.1147 78.0681 26.1147 78.1861 26.1147C78.3835 26.1147 78.5801 26.0752 78.7776 25.9961C79.0537 25.8776 79.3298 25.68 79.4871 25.4034C79.6452 25.1267 79.7632 24.8501 79.7632 24.5339C79.7632 24.2177 79.6845 23.9015 79.4871 23.6644C79.3691 23.3483 79.1323 23.1507 78.8169 23.0321Z" fill="#215FFF"/>
</g>
<defs>
<clipPath id="clip0_131_2172">
<rect width="125.5" height="36.8133" fill="white"/>
</clipPath>
</defs>
</svg>
